<svg width="169" height="177" viewBox="0 0 169 177" fill="none" xmlns="http://www.w3.org/2000/svg">
<rect width="169" height="177" fill="white"/>
<path fill-rule="evenodd" clip-rule="evenodd" d="M65.2 119H62.8C54.9333 119 47.2 121.2 39.6 125.6C31.8667 130.133 28 135.533 28 141.8C28 149.8 32 156.467 40 161.8C48 167.267 57.6 170 68.8 170C80.1333 170 90.1333 167.333 98.8 162C107.6 156.8 112 150.933 112 144.4C112 139.867 109.6 135 104.8 129.8C100 124.733 94.8 120.467 89.2 117C73.8667 107.4 66.2 101.2 66.2 98.3999C66.2 96.2666 68.2667 94.3333 72.4 92.5999C76.5333 90.7333 80.3333 89.5333 83.8 89C90.8667 87.8 96.6667 84.5333 101.2 79.2C99.0693 80.8742 94.5213 81.9742 90 82.7674C85.3812 83.5776 80.8575 83.5941 78 83.2C72.2 82.4 69.6 79 69.6 70.6C69.6 62.2 71.7333 53.4 76 44.2C80.4 35 85.8 30.8 90.4 30.4C95 30 101.152 30.8156 106 35C109.758 38.244 111.483 43.5 112.4 48L110.2 37.2C106.6 28.5333 100 24.2 90.4 24.2C80.9333 24.2 72.7333 28.9333 65.8 38.4C59 47.7333 55.6 56.8 55.6 65.6C55.6 72 57.3333 77.2667 60.8 81.4C64.4 85.4 68 87.8667 71.6 88.8C58.1333 94 51.4 98.0666 51.4 101C51.4 105.933 56 111.933 65.2 119ZM93.6 142.8C95.0667 144.533 95.8 146.533 95.8 148.8C95.8 157.867 88.6667 162.4 74.4 162.4C66.2667 162.4 59.1333 160.267 53 156C46.8667 151.733 43.8 146.867 43.8 141.4C43.8 135.933 45.8 131.533 49.8 128.2C53.9333 124.867 59.0667 123.2 65.2 123.2C67.3333 123.2 69.4667 123.4 71.6 123.8C74.1333 125.533 77.4667 128.067 81.6 131.4L85.8 135C87.8 136.6 89.2 137.867 90 138.8C90.9333 139.733 92.1333 141.067 93.6 142.8Z" fill="#EFBF15"/>
<path fill-rule="evenodd" clip-rule="evenodd" d="M112.4 48L110.2 37.2C111.533 29.3333 114.2 22.5333 118.2 16.8C122.2 10.9333 127.133 8 133 8C135.533 8 137.533 8.8 139 10.4C140.467 11.8667 141.2 13.7333 141.2 16C141.2 20.4 139.067 23.7333 134.8 26C132.933 23.6 130.2 22.4 126.6 22.4C123.133 22.4 119.867 25.3333 116.8 31.2C113.867 36.9333 112.4 42.5333 112.4 48Z" fill="#EFBF15"/>
<path d="M83.4998 36.5C83.9997 37.0001 73.9999 76.5 72.9998 76.5C71.9997 76.5 71 72 71.4998 64.5001C71.9997 57.0001 73.6223 51.9604 77.4998 45C79.4772 41.4505 83 36 83.4998 36.5Z" fill="#FFDD64"/>
<path d="M107.5 40C108.5 40.0001 111.5 47.0001 111.5 48.5C111.5 50 104 75 102 76.5C99.9998 78.0001 94.9999 80 94.9998 79C94.9998 78.0001 106.5 40 107.5 40Z" fill="#FFDD64"/>
<path d="M83.4998 36.5C83.9997 37.0001 73.9999 76.5 72.9998 76.5C71.9997 76.5 71 72 71.4998 64.5001C71.9997 57.0001 73.6223 51.9604 77.4998 45C79.4772 41.4505 83 36 83.4998 36.5Z" stroke="white"/>
<path d="M107.5 40C108.5 40.0001 111.5 47.0001 111.5 48.5C111.5 50 104 75 102 76.5C99.9998 78.0001 94.9999 80 94.9998 79C94.9998 78.0001 106.5 40 107.5 40Z" stroke="white"/>
<path d="M83.4998 36.5C83.9997 37.0001 73.9999 76.5 72.9998 76.5C71.9997 76.5 71 72 71.4998 64.5001C71.9997 57.0001 73.6223 51.9604 77.4998 45C79.4772 41.4505 83 36 83.4998 36.5Z" fill="#C69E10"/>
<path d="M86.4998 33.5C84.4998 34.0432 73.9999 77.5 74.9998 79.5C75.9998 81.5001 80.4998 82 81.9998 82C83.4998 82 96.9999 34.5 95.4998 33.5C93.9998 32.5001 88.4998 32.9569 86.4998 33.5Z" fill="#C69E10"/>
<path d="M83.4998 36.5C83.9997 37.0001 73.9999 76.5 72.9998 76.5C71.9997 76.5 71 72 71.4998 64.5001C71.9997 57.0001 73.6223 51.9604 77.4998 45C79.4772 41.4505 83 36 83.4998 36.5Z" stroke="white"/>
<path d="M86.4998 33.5C84.4998 34.0432 73.9999 77.5 74.9998 79.5C75.9998 81.5001 80.4998 82 81.9998 82C83.4998 82 96.9999 34.5 95.4998 33.5C93.9998 32.5001 88.4998 32.9569 86.4998 33.5Z" stroke="white"/>
<path d="M83.4998 36.5C83.9997 37.0001 73.9999 76.5 72.9998 76.5C71.9997 76.5 71 72 71.4998 64.5001C71.9997 57.0001 73.6223 51.9604 77.4998 45C79.4772 41.4505 83 36 83.4998 36.5Z" fill="#EFBF15"/>
<path d="M98.4998 33.5C99.9998 33.5 105 34.0001 105.5 37.5C106 41 94.4999 78.5 92.4998 79.5C90.4998 80.5001 85.4998 83.0001 84.4998 82C83.4998 81 96.9999 33.5 98.4998 33.5Z" fill="#EFBF15"/>
<path d="M83.4998 36.5C83.9997 37.0001 73.9999 76.5 72.9998 76.5C71.9997 76.5 71 72 71.4998 64.5001C71.9997 57.0001 73.6223 51.9604 77.4998 45C79.4772 41.4505 83 36 83.4998 36.5Z" stroke="white"/>
<path d="M98.4998 33.5C99.9998 33.5 105 34.0001 105.5 37.5C106 41 94.4999 78.5 92.4998 79.5C90.4998 80.5001 85.4998 83.0001 84.4998 82C83.4998 81 96.9999 33.5 98.4998 33.5Z" stroke="white"/>
<path d="M83.4998 36.5C83.9997 37.0001 73.9999 76.5 72.9998 76.5C71.9997 76.5 71 72 71.4998 64.5001C71.9997 57.0001 73.6223 51.9604 77.4998 45C79.4772 41.4505 83 36 83.4998 36.5Z" fill="#8D710C" stroke="white"/>
</svg>
