<svg width="1132" height="585" viewBox="0 0 1132 585" fill="none" xmlns="http://www.w3.org/2000/svg">
<rect width="1132" height="585" fill="white"/>
<path d="M238.227 338.16C225.939 338.16 216.387 334.896 209.571 328.368C202.851 321.84 199.491 312.624 199.491 300.72C199.491 292.656 201.075 285.552 204.243 279.408C207.411 273.168 211.875 268.368 217.635 265.008C223.395 261.552 230.067 259.824 237.651 259.824C241.203 259.824 244.899 260.256 248.739 261.12C252.675 261.888 255.699 262.8 257.811 263.856L253.923 280.992C251.715 279.936 249.267 279.12 246.579 278.544C243.987 277.872 241.539 277.536 239.235 277.536C233.283 277.536 228.483 279.552 224.835 283.584C221.283 287.616 219.507 292.944 219.507 299.568C219.507 306.288 221.331 311.472 224.979 315.12C228.723 318.768 234.003 320.592 240.819 320.592C245.331 320.592 250.179 319.728 255.363 318L258.387 334.416C252.147 336.912 245.427 338.16 238.227 338.16Z" fill="black"/>
<path d="M273.286 261.84H293.59V273.936H294.742C297.526 269.04 300.262 265.44 302.95 263.136C305.734 260.832 309.19 259.68 313.318 259.68C315.046 259.68 316.486 259.872 317.638 260.256L315.478 282.144C312.982 281.472 310.966 281.136 309.43 281.136C307.222 281.136 305.254 281.568 303.526 282.432C301.894 283.296 300.406 284.448 299.062 285.888C297.814 287.328 295.99 289.536 293.59 292.512V336H273.286V261.84Z" fill="black"/>
<path d="M343.694 368.256C339.278 368.256 334.67 367.2 329.87 365.088L332.894 348.384C336.542 350.208 339.614 351.12 342.11 351.12C345.086 351.12 347.294 350.16 348.734 348.24C350.27 346.32 351.902 342.96 353.63 338.16L324.686 262.128L345.71 260.4L363.422 313.536L379.838 261.84H399.854C393.71 280.464 387.23 298.8 380.414 316.848C373.694 334.896 368.462 347.28 364.718 354C362.03 358.8 359.006 362.352 355.646 364.656C352.382 367.056 348.398 368.256 343.694 368.256Z" fill="black"/>
<path d="M411.229 261.84H430.957L430.525 271.488H431.101C433.597 267.648 436.621 264.72 440.173 262.704C443.821 260.688 447.949 259.68 452.557 259.68C460.909 259.68 467.437 262.896 472.141 269.328C476.941 275.664 479.341 284.544 479.341 295.968C479.341 309.504 475.789 319.92 468.685 327.216C461.677 334.416 451.645 338.016 438.589 338.016C436.957 338.016 434.509 337.92 431.245 337.728V367.392H411.229V261.84ZM440.605 320.304C446.653 320.304 451.213 318.336 454.285 314.4C457.453 310.464 459.037 304.704 459.037 297.12C459.037 290.976 458.029 286.176 456.013 282.72C454.093 279.168 451.405 277.392 447.949 277.392C444.877 277.392 441.901 278.736 439.021 281.424C436.141 284.016 433.549 287.76 431.245 292.656V319.008C434.509 319.872 437.629 320.304 440.605 320.304Z" fill="black"/>
<path d="M521.555 338.16C514.643 338.16 509.267 336.432 505.427 332.976C501.683 329.424 499.811 324.432 499.811 318V279.264H488.291V261.84H499.811V246C506.627 244.848 513.347 243.984 519.971 243.408V261.84H538.691V279.264H519.971V314.256C519.971 316.272 520.547 317.808 521.699 318.864C522.947 319.92 524.675 320.448 526.883 320.448C529.571 320.448 532.643 319.824 536.099 318.576L540.563 333.84C534.419 336.72 528.083 338.16 521.555 338.16Z" fill="black"/>
<path d="M589.22 338.16C581.732 338.16 575.108 336.528 569.348 333.264C563.684 330 559.268 325.44 556.1 319.584C552.932 313.632 551.348 306.768 551.348 298.992C551.348 291.216 552.884 284.4 555.956 278.544C559.124 272.592 563.54 267.984 569.204 264.72C574.964 261.456 581.588 259.824 589.076 259.824C596.564 259.824 603.14 261.456 608.804 264.72C614.564 267.888 618.98 272.4 622.052 278.256C625.22 284.112 626.804 290.88 626.804 298.56C626.804 306.336 625.22 313.248 622.052 319.296C618.98 325.248 614.564 329.904 608.804 333.264C603.14 336.528 596.612 338.16 589.22 338.16ZM589.076 320.592C594.26 320.592 598.388 318.624 601.46 314.688C604.628 310.656 606.212 305.376 606.212 298.848C606.212 292.32 604.628 287.136 601.46 283.296C598.388 279.36 594.26 277.392 589.076 277.392C583.892 277.392 579.716 279.36 576.548 283.296C573.476 287.136 571.94 292.32 571.94 298.848C571.94 305.376 573.476 310.656 576.548 314.688C579.716 318.624 583.892 320.592 589.076 320.592Z" fill="black"/>
<path d="M754.138 338.16C746.65 338.16 740.026 336.528 734.266 333.264C728.602 330 724.186 325.44 721.018 319.584C717.85 313.632 716.266 306.768 716.266 298.992C716.266 291.216 717.802 284.4 720.874 278.544C724.042 272.592 728.458 267.984 734.122 264.72C739.882 261.456 746.506 259.824 753.994 259.824C761.482 259.824 768.058 261.456 773.722 264.72C779.482 267.888 783.898 272.4 786.97 278.256C790.138 284.112 791.722 290.88 791.722 298.56C791.722 306.336 790.138 313.248 786.97 319.296C783.898 325.248 779.482 329.904 773.722 333.264C768.058 336.528 761.53 338.16 754.138 338.16ZM753.994 320.592C759.178 320.592 763.306 318.624 766.378 314.688C769.546 310.656 771.13 305.376 771.13 298.848C771.13 292.32 769.546 287.136 766.378 283.296C763.306 279.36 759.178 277.392 753.994 277.392C748.81 277.392 744.634 279.36 741.466 283.296C738.394 287.136 736.858 292.32 736.858 298.848C736.858 305.376 738.394 310.656 741.466 314.688C744.634 318.624 748.81 320.592 753.994 320.592Z" fill="black"/>
<path d="M828.931 338.16C824.227 338.16 819.667 337.68 815.251 336.72C810.931 335.76 807.235 334.464 804.163 332.832L806.035 315.552C809.299 317.568 812.899 319.2 816.835 320.448C820.771 321.696 824.467 322.32 827.923 322.32C831.187 322.32 833.923 321.744 836.131 320.592C838.339 319.344 839.443 317.568 839.443 315.264C839.443 313.44 838.675 312.048 837.139 311.088C835.603 310.032 832.675 308.736 828.355 307.2L824.467 305.76C820.339 304.224 816.979 302.784 814.387 301.44C811.795 300 809.443 297.84 807.331 294.96C805.219 292.08 804.163 288.288 804.163 283.584C804.163 276.096 806.947 270.288 812.515 266.16C818.179 261.936 825.523 259.824 834.547 259.824C841.651 259.824 849.139 261.216 857.011 264L854.275 281.136C851.491 279.504 848.323 278.208 844.771 277.248C841.315 276.192 838.051 275.664 834.979 275.664C831.811 275.664 829.267 276.192 827.347 277.248C825.523 278.304 824.611 279.84 824.611 281.856C824.611 283.776 825.379 285.216 826.915 286.176C828.451 287.136 831.043 288.24 834.691 289.488C837.571 290.544 839.251 291.168 839.731 291.36C843.763 292.992 847.123 294.576 849.811 296.112C852.499 297.648 854.851 299.952 856.867 303.024C858.883 306 859.891 309.84 859.891 314.544C859.891 322.416 857.059 328.32 851.395 332.256C845.731 336.192 838.243 338.16 828.931 338.16Z" fill="black"/>
<path d="M898.474 338.016C890.602 338.016 884.41 335.616 879.898 330.816C875.386 326.016 873.13 319.44 873.13 311.088V261.84H893.434V307.776C893.434 311.712 894.394 314.784 896.314 316.992C898.234 319.104 900.826 320.16 904.09 320.16C907.354 320.16 910.474 319.104 913.45 316.992C916.522 314.88 919.066 312.048 921.082 308.496V261.84H941.386V336H921.082V326.208C918.298 329.952 915.082 332.88 911.434 334.992C907.882 337.008 903.562 338.016 898.474 338.016Z" fill="black"/>
<path fill-rule="evenodd" clip-rule="evenodd" d="M665.2 323H662.8C654.933 323 647.2 325.2 639.6 329.6C631.867 334.133 628 339.533 628 345.8C628 353.8 632 360.467 640 365.8C648 371.267 657.6 374 668.8 374C680.133 374 690.133 371.333 698.8 366C707.6 360.8 712 354.933 712 348.4C712 343.867 709.6 339 704.8 333.8C700 328.733 694.8 324.467 689.2 321C673.867 311.4 666.2 305.2 666.2 302.4C666.2 300.267 668.267 298.333 672.4 296.6C676.533 294.733 680.333 293.533 683.8 293C690.867 291.8 696.667 288.533 701.2 283.2C699.069 284.874 694.521 285.974 690 286.767C685.381 287.578 680.858 287.594 678 287.2C672.2 286.4 669.6 283 669.6 274.6C669.6 266.2 671.733 257.4 676 248.2C680.4 239 685.8 234.8 690.4 234.4C695 234 701.152 234.816 706 239C709.758 242.244 711.483 247.5 712.4 252L710.2 241.2C706.6 232.533 700 228.2 690.4 228.2C680.933 228.2 672.733 232.933 665.8 242.4C659 251.733 655.6 260.8 655.6 269.6C655.6 276 657.333 281.267 660.8 285.4C664.4 289.4 668 291.867 671.6 292.8C658.133 298 651.4 302.067 651.4 305C651.4 309.933 656 315.933 665.2 323ZM693.6 346.8C695.067 348.533 695.8 350.533 695.8 352.8C695.8 361.867 688.667 366.4 674.4 366.4C666.267 366.4 659.133 364.267 653 360C646.867 355.733 643.8 350.867 643.8 345.4C643.8 339.933 645.8 335.533 649.8 332.2C653.933 328.867 659.067 327.2 665.2 327.2C667.333 327.2 669.467 327.4 671.6 327.8C674.133 329.533 677.467 332.067 681.6 335.4L685.8 339C687.8 340.6 689.2 341.867 690 342.8C690.933 343.733 692.133 345.067 693.6 346.8Z" fill="#EFBF15"/>
<path fill-rule="evenodd" clip-rule="evenodd" d="M712.4 252L710.2 241.2C711.533 233.333 714.2 226.533 718.2 220.8C722.2 214.933 727.133 212 733 212C735.533 212 737.533 212.8 739 214.4C740.467 215.867 741.2 217.733 741.2 220C741.2 224.4 739.067 227.733 734.8 230C732.933 227.6 730.2 226.4 726.6 226.4C723.133 226.4 719.867 229.333 716.8 235.2C713.867 240.933 712.4 246.533 712.4 252Z" fill="#EFBF15"/>
<path d="M683.5 240.5C684 241 674 280.5 673 280.5C672 280.5 671 276 671.5 268.5C672 261 673.622 255.96 677.5 249C679.477 245.451 683 240 683.5 240.5Z" fill="#2D4DBC"/>
<path d="M707.5 244C708.5 244 711.5 251 711.5 252.5C711.5 254 704 279 702 280.5C700 282 695 284 695 283C695 282 706.5 244 707.5 244Z" fill="#2D4DBC"/>
<path d="M683.5 240.5C684 241 674 280.5 673 280.5C672 280.5 671 276 671.5 268.5C672 261 673.622 255.96 677.5 249C679.477 245.451 683 240 683.5 240.5Z" stroke="white"/>
<path d="M707.5 244C708.5 244 711.5 251 711.5 252.5C711.5 254 704 279 702 280.5C700 282 695 284 695 283C695 282 706.5 244 707.5 244Z" stroke="white"/>
<path d="M683.5 240.5C684 241 674 280.5 673 280.5C672 280.5 671 276 671.5 268.5C672 261 673.622 255.96 677.5 249C679.477 245.451 683 240 683.5 240.5Z" fill="#D55050"/>
<path d="M686.5 237.5C684.5 238.043 674 281.5 675 283.5C676 285.5 680.5 286 682 286C683.5 286 697 238.5 695.5 237.5C694 236.5 688.5 236.957 686.5 237.5Z" fill="#D55050"/>
<path d="M683.5 240.5C684 241 674 280.5 673 280.5C672 280.5 671 276 671.5 268.5C672 261 673.622 255.96 677.5 249C679.477 245.451 683 240 683.5 240.5Z" stroke="white"/>
<path d="M686.5 237.5C684.5 238.043 674 281.5 675 283.5C676 285.5 680.5 286 682 286C683.5 286 697 238.5 695.5 237.5C694 236.5 688.5 236.957 686.5 237.5Z" stroke="white"/>
<path d="M683.5 240.5C684 241 674 280.5 673 280.5C672 280.5 671 276 671.5 268.5C672 261 673.622 255.96 677.5 249C679.477 245.451 683 240 683.5 240.5Z" fill="#2FBD79"/>
<path d="M698.5 237.5C700 237.5 705 238 705.5 241.5C706 245 694.5 282.5 692.5 283.5C690.5 284.5 685.5 287 684.5 286C683.5 285 697 237.5 698.5 237.5Z" fill="#2FBD79"/>
<path d="M683.5 240.5C684 241 674 280.5 673 280.5C672 280.5 671 276 671.5 268.5C672 261 673.622 255.96 677.5 249C679.477 245.451 683 240 683.5 240.5Z" stroke="white"/>
<path d="M698.5 237.5C700 237.5 705 238 705.5 241.5C706 245 694.5 282.5 692.5 283.5C690.5 284.5 685.5 287 684.5 286C683.5 285 697 237.5 698.5 237.5Z" stroke="white"/>
<path d="M683.5 240.5C684 241 674 280.5 673 280.5C672 280.5 671 276 671.5 268.5C672 261 673.622 255.96 677.5 249C679.477 245.451 683 240 683.5 240.5Z" fill="#A5A5A5" stroke="white"/>
</svg>
