<svg width="1132" height="585" viewBox="0 0 1132 585" fill="none" xmlns="http://www.w3.org/2000/svg">
<rect width="1132" height="585" fill="white"/>
<line x1="660" y1="408.317" x2="660" y2="215.683" stroke="#10CD94" stroke-width="14"/>
<path d="M230.436 337.16C218.148 337.16 208.596 333.896 201.78 327.368C195.06 320.84 191.7 311.624 191.7 299.72C191.7 291.656 193.284 284.552 196.452 278.408C199.62 272.168 204.084 267.368 209.844 264.008C215.604 260.552 222.276 258.824 229.86 258.824C233.412 258.824 237.108 259.256 240.948 260.12C244.884 260.888 247.908 261.8 250.02 262.856L246.132 279.992C243.924 278.936 241.476 278.12 238.788 277.544C236.196 276.872 233.748 276.536 231.444 276.536C225.492 276.536 220.692 278.552 217.044 282.584C213.492 286.616 211.716 291.944 211.716 298.568C211.716 305.288 213.54 310.472 217.188 314.12C220.932 317.768 226.212 319.592 233.028 319.592C237.54 319.592 242.388 318.728 247.572 317L250.596 333.416C244.356 335.912 237.636 337.16 230.436 337.16Z" fill="black"/>
<path d="M265.495 260.84H285.799V272.936H286.951C289.735 268.04 292.471 264.44 295.159 262.136C297.943 259.832 301.399 258.68 305.527 258.68C307.255 258.68 308.695 258.872 309.847 259.256L307.687 281.144C305.191 280.472 303.175 280.136 301.639 280.136C299.431 280.136 297.463 280.568 295.735 281.432C294.103 282.296 292.615 283.448 291.271 284.888C290.023 286.328 288.199 288.536 285.799 291.512V335H265.495V260.84Z" fill="black"/>
<path d="M335.903 367.256C331.487 367.256 326.879 366.2 322.079 364.088L325.103 347.384C328.751 349.208 331.823 350.12 334.319 350.12C337.295 350.12 339.503 349.16 340.943 347.24C342.479 345.32 344.111 341.96 345.839 337.16L316.895 261.128L337.919 259.4L355.631 312.536L372.047 260.84H392.063C385.919 279.464 379.439 297.8 372.623 315.848C365.903 333.896 360.671 346.28 356.927 353C354.239 357.8 351.215 361.352 347.855 363.656C344.591 366.056 340.607 367.256 335.903 367.256Z" fill="black"/>
<path d="M403.438 260.84H423.166L422.734 270.488H423.31C425.806 266.648 428.83 263.72 432.382 261.704C436.03 259.688 440.158 258.68 444.766 258.68C453.118 258.68 459.646 261.896 464.35 268.328C469.15 274.664 471.55 283.544 471.55 294.968C471.55 308.504 467.998 318.92 460.894 326.216C453.886 333.416 443.854 337.016 430.798 337.016C429.166 337.016 426.718 336.92 423.454 336.728V366.392H403.438V260.84ZM432.814 319.304C438.862 319.304 443.422 317.336 446.494 313.4C449.662 309.464 451.246 303.704 451.246 296.12C451.246 289.976 450.238 285.176 448.222 281.72C446.302 278.168 443.614 276.392 440.158 276.392C437.086 276.392 434.11 277.736 431.23 280.424C428.35 283.016 425.758 286.76 423.454 291.656V318.008C426.718 318.872 429.838 319.304 432.814 319.304Z" fill="black"/>
<path d="M513.763 337.16C506.851 337.16 501.475 335.432 497.635 331.976C493.891 328.424 492.02 323.432 492.02 317V278.264H480.5V260.84H492.02V245C498.836 243.848 505.556 242.984 512.18 242.408V260.84H530.9V278.264H512.18V313.256C512.18 315.272 512.756 316.808 513.908 317.864C515.155 318.92 516.883 319.448 519.091 319.448C521.779 319.448 524.851 318.824 528.307 317.576L532.772 332.84C526.628 335.72 520.291 337.16 513.763 337.16Z" fill="black"/>
<path d="M577.913 337.16C570.425 337.16 563.801 335.528 558.041 332.264C552.377 329 547.961 324.44 544.793 318.584C541.625 312.632 540.041 305.768 540.041 297.992C540.041 290.216 541.577 283.4 544.649 277.544C547.817 271.592 552.233 266.984 557.897 263.72C563.657 260.456 570.281 258.824 577.769 258.824C585.257 258.824 591.833 260.456 597.497 263.72C603.257 266.888 607.673 271.4 610.745 277.256C613.913 283.112 615.497 289.88 615.497 297.56C615.497 305.336 613.913 312.248 610.745 318.296C607.673 324.248 603.257 328.904 597.497 332.264C591.833 335.528 585.305 337.16 577.913 337.16ZM577.769 319.592C582.953 319.592 587.081 317.624 590.153 313.688C593.321 309.656 594.905 304.376 594.905 297.848C594.905 291.32 593.321 286.136 590.153 282.296C587.081 278.36 582.953 276.392 577.769 276.392C572.585 276.392 568.409 278.36 565.241 282.296C562.169 286.136 560.633 291.32 560.633 297.848C560.633 304.376 562.169 309.656 565.241 313.688C568.409 317.624 572.585 319.592 577.769 319.592Z" fill="black"/>
<path d="M747.929 337.16C740.441 337.16 733.817 335.528 728.057 332.264C722.393 329 717.977 324.44 714.809 318.584C711.641 312.632 710.057 305.768 710.057 297.992C710.057 290.216 711.593 283.4 714.665 277.544C717.833 271.592 722.249 266.984 727.913 263.72C733.673 260.456 740.297 258.824 747.785 258.824C755.273 258.824 761.849 260.456 767.513 263.72C773.273 266.888 777.689 271.4 780.761 277.256C783.929 283.112 785.513 289.88 785.513 297.56C785.513 305.336 783.929 312.248 780.761 318.296C777.689 324.248 773.273 328.904 767.513 332.264C761.849 335.528 755.321 337.16 747.929 337.16ZM747.785 319.592C752.969 319.592 757.097 317.624 760.169 313.688C763.337 309.656 764.921 304.376 764.921 297.848C764.921 291.32 763.337 286.136 760.169 282.296C757.097 278.36 752.969 276.392 747.785 276.392C742.601 276.392 738.425 278.36 735.257 282.296C732.185 286.136 730.649 291.32 730.649 297.848C730.649 304.376 732.185 309.656 735.257 313.688C738.425 317.624 742.601 319.592 747.785 319.592Z" fill="black"/>
<path d="M822.722 337.16C818.018 337.16 813.458 336.68 809.042 335.72C804.722 334.76 801.026 333.464 797.954 331.832L799.826 314.552C803.09 316.568 806.69 318.2 810.626 319.448C814.562 320.696 818.258 321.32 821.714 321.32C824.978 321.32 827.714 320.744 829.922 319.592C832.13 318.344 833.234 316.568 833.234 314.264C833.234 312.44 832.466 311.048 830.93 310.088C829.394 309.032 826.466 307.736 822.146 306.2L818.258 304.76C814.13 303.224 810.77 301.784 808.178 300.44C805.586 299 803.234 296.84 801.122 293.96C799.01 291.08 797.954 287.288 797.954 282.584C797.954 275.096 800.738 269.288 806.306 265.16C811.97 260.936 819.314 258.824 828.338 258.824C835.442 258.824 842.93 260.216 850.802 263L848.066 280.136C845.282 278.504 842.114 277.208 838.562 276.248C835.106 275.192 831.842 274.664 828.77 274.664C825.602 274.664 823.058 275.192 821.138 276.248C819.314 277.304 818.402 278.84 818.402 280.856C818.402 282.776 819.17 284.216 820.706 285.176C822.242 286.136 824.834 287.24 828.482 288.488C831.362 289.544 833.042 290.168 833.522 290.36C837.554 291.992 840.914 293.576 843.602 295.112C846.29 296.648 848.642 298.952 850.658 302.024C852.674 305 853.682 308.84 853.682 313.544C853.682 321.416 850.85 327.32 845.186 331.256C839.522 335.192 832.034 337.16 822.722 337.16Z" fill="black"/>
<path d="M892.265 337.016C884.393 337.016 878.201 334.616 873.689 329.816C869.177 325.016 866.921 318.44 866.921 310.088V260.84H887.225V306.776C887.225 310.712 888.185 313.784 890.105 315.992C892.025 318.104 894.617 319.16 897.881 319.16C901.145 319.16 904.265 318.104 907.241 315.992C910.313 313.88 912.857 311.048 914.873 307.496V260.84H935.177V335H914.873V325.208C912.089 328.952 908.873 331.88 905.225 333.992C901.673 336.008 897.353 337.016 892.265 337.016Z" fill="black"/>
<path d="M654.853 367.688C646.309 367.688 637.957 366.584 629.797 364.376L633.685 346.52C642.901 349.208 650.581 350.552 656.725 350.552C661.621 350.552 665.365 349.784 667.957 348.248C670.645 346.712 672.517 344.312 673.573 341.048C674.725 337.784 675.397 333.32 675.589 327.656H675.157C672.469 330.728 669.349 333.08 665.797 334.712C662.245 336.344 658.357 337.16 654.133 337.16C645.685 337.16 639.061 333.992 634.261 327.656C629.557 321.224 627.205 312.344 627.205 301.016C627.205 287.288 630.709 276.824 637.717 269.624C644.821 262.424 654.949 258.824 668.101 258.824C675.685 258.824 684.709 259.976 695.173 262.28C695.365 282.056 695.461 296.936 695.461 306.92C695.461 315.848 695.413 322.568 695.317 327.08C695.125 340.712 691.669 350.888 684.949 357.608C678.325 364.328 668.293 367.688 654.853 367.688ZM659.461 319.448C662.437 319.448 665.269 318.344 667.957 316.136C670.741 313.928 673.189 310.808 675.301 306.776L675.157 277.832C671.989 276.968 668.917 276.536 665.941 276.536C659.893 276.536 655.285 278.504 652.117 282.44C649.045 286.376 647.509 292.088 647.509 299.576C647.509 305.816 648.517 310.712 650.533 314.264C652.645 317.72 655.621 319.448 659.461 319.448Z" fill="#EFBF15"/>
<path fill-rule="evenodd" clip-rule="evenodd" d="M613.284 374.411L621.972 334.51C615.649 325.096 616.5 313.474 616.5 301.016C616.5 285.003 617.319 270.509 627.685 259.859L627.718 259.825L627.752 259.791C638.21 249.191 652.378 244.824 668.101 244.824C677.017 244.824 687.102 246.167 698.184 248.608L709.064 251.003L709.173 262.144C709.365 281.931 709.461 296.866 709.461 306.92C709.461 315.84 709.414 322.665 709.315 327.329C709.086 342.981 705.082 357.25 694.884 367.472C684.685 377.795 670.416 381.688 654.853 381.688C645.088 381.688 635.506 380.424 626.141 377.89L613.284 374.411ZM684.949 357.608C691.669 350.888 695.125 340.712 695.317 327.08C695.413 322.568 695.461 315.848 695.461 306.92C695.461 296.936 695.365 282.056 695.173 262.28C684.709 259.976 675.685 258.824 668.101 258.824C654.949 258.824 644.821 262.424 637.717 269.624C630.709 276.824 627.205 287.288 627.205 301.016C627.205 312.344 629.557 321.224 634.261 327.656C636.386 330.46 638.867 332.644 641.706 334.207C645.282 336.176 649.424 337.16 654.133 337.16C655.012 337.16 655.876 337.125 656.725 337.054C657.955 336.952 659.154 336.776 660.323 336.526C660.387 336.512 660.451 336.498 660.515 336.484C660.541 336.478 660.567 336.472 660.592 336.467C660.705 336.441 660.817 336.415 660.929 336.389C661.003 336.371 661.077 336.353 661.15 336.335C662.758 335.938 664.307 335.397 665.797 334.712C668.702 333.378 671.317 331.562 673.644 329.265C674.162 328.753 674.667 328.216 675.157 327.656H675.589C675.586 327.751 675.583 327.847 675.579 327.941C675.578 327.968 675.577 327.995 675.576 328.022C675.499 330.051 675.36 331.922 675.157 333.637C674.812 336.564 674.284 339.034 673.573 341.048C672.961 342.939 672.075 344.541 670.916 345.852C670.074 346.803 669.088 347.602 667.957 348.248C665.365 349.784 661.621 350.552 656.725 350.552C655.89 350.552 655.026 350.527 654.133 350.477C652.021 350.36 649.75 350.103 647.319 349.707C644.058 349.175 640.51 348.393 636.676 347.36C635.698 347.096 634.701 346.816 633.685 346.52L629.797 364.376C632.868 365.207 635.967 365.882 639.092 366.4C640.571 366.645 642.056 366.855 643.547 367.031C647.278 367.469 651.047 367.688 654.853 367.688C668.293 367.688 678.325 364.328 684.949 357.608ZM664.866 318.158C665.916 317.64 666.947 316.966 667.957 316.136C668.875 315.408 669.756 314.582 670.6 313.656C672.318 311.773 673.885 309.479 675.301 306.776L675.157 277.832C671.989 276.968 668.917 276.536 665.941 276.536C659.893 276.536 655.285 278.504 652.117 282.44C649.045 286.376 647.509 292.088 647.509 299.576C647.509 305.816 648.517 310.712 650.533 314.264C652.645 317.72 655.621 319.448 659.461 319.448C661.319 319.448 663.12 319.018 664.866 318.158Z" fill="white"/>
</svg>
